<svg width="398" height="532" viewBox="0 0 398 532" fill="none" xmlns="http://www.w3.org/2000/svg">
<path d="M198.345 145.359C184.013 145.359 170.004 141.109 158.088 133.147C146.172 125.185 136.885 113.868 131.4 100.628C125.916 87.3874 124.481 72.8181 127.277 58.7623C130.073 44.7064 136.974 31.7953 147.108 21.6616C157.241 11.5279 170.152 4.62669 184.208 1.8308C198.264 -0.965082 212.834 0.469887 226.074 5.95421C239.314 11.4385 250.631 20.7259 258.593 32.6419C266.555 44.5579 270.805 58.5673 270.805 72.8985C270.788 92.111 263.149 110.532 249.563 124.117C235.978 137.702 217.557 145.342 198.345 145.359Z" fill="#FFC700"/>
<path d="M72.46 271.866C112.479 271.866 144.92 239.424 144.92 199.406C144.92 159.387 112.479 126.946 72.46 126.946C32.4415 126.946 0 159.387 0 199.406C0 239.424 32.4415 271.866 72.46 271.866Z" fill="#FFC700"/>
<path d="M198.345 404.367C238.363 404.367 270.805 371.925 270.805 331.907C270.805 291.888 238.363 259.447 198.345 259.447C158.326 259.447 125.885 291.888 125.885 331.907C125.885 371.925 158.326 404.367 198.345 404.367Z" fill="#3A7DFF"/>
<path d="M325.54 531.562C365.558 531.562 398 499.12 398 459.102C398 419.083 365.558 386.642 325.54 386.642C285.521 386.642 253.08 419.083 253.08 459.102C253.08 499.12 285.521 531.562 325.54 531.562Z" fill="#3A7DFF"/>
</svg>
